<svg width="112" height="18" viewBox="0 0 112 18" fill="none" xmlns="http://www.w3.org/2000/svg">
<path d="M0.975142 8.45455C0.975142 6.92045 1.16903 5.47159 1.55682 4.10795C1.9446 2.74432 2.50071 1.46591 3.22514 0.272726H4.26065C3.94957 0.775568 3.66406 1.34446 3.40412 1.9794C3.14844 2.61435 2.92685 3.2919 2.73935 4.01207C2.55185 4.73224 2.40696 5.46946 2.30469 6.22372C2.20241 6.97372 2.15128 7.71733 2.15128 8.45455C2.15128 9.43892 2.24077 10.4318 2.41974 11.4332C2.59872 12.4347 2.84588 13.3849 3.16122 14.2841C3.48082 15.1832 3.8473 15.9673 4.26065 16.6364H3.22514C2.50071 15.4389 1.9446 14.1584 1.55682 12.7947C1.16903 11.4311 0.975142 9.98437 0.975142 8.45455ZM7.05762 15V14.1243L11.3339 9.31747C11.8921 8.68679 12.3417 8.14773 12.6826 7.70028C13.0235 7.25284 13.2707 6.83949 13.4241 6.46023C13.5818 6.08097 13.6606 5.68679 13.6606 5.2777C13.6606 4.77912 13.5434 4.34446 13.309 3.97372C13.0789 3.59872 12.7615 3.30682 12.3566 3.09801C11.9518 2.8892 11.4958 2.7848 10.9887 2.7848C10.4518 2.7848 9.98092 2.89986 9.57609 3.12997C9.17552 3.36008 8.86444 3.67543 8.64285 4.07599C8.42126 4.47656 8.31046 4.93679 8.31046 5.45668H7.16629C7.16629 4.73224 7.33248 4.09091 7.66487 3.53267C8.00151 2.97017 8.45961 2.52912 9.03916 2.20952C9.62296 1.88991 10.2835 1.73011 11.0207 1.73011C11.7494 1.73011 12.3971 1.88778 12.9639 2.20312C13.5306 2.5142 13.9759 2.93821 14.2998 3.47514C14.6237 4.01207 14.7856 4.61293 14.7856 5.2777C14.7856 5.75923 14.7004 6.22585 14.5299 6.67756C14.3637 7.12926 14.0761 7.6321 13.667 8.18608C13.2579 8.74006 12.6911 9.41761 11.9667 10.2188L8.71955 13.843V13.9261H15.1947V15H7.05762ZM22.4693 15.179C21.5488 15.179 20.7626 14.9148 20.1106 14.3864C19.4629 13.8537 18.9643 13.0845 18.6149 12.0788C18.2697 11.0732 18.0971 9.86506 18.0971 8.45455C18.0971 7.0483 18.2697 5.84446 18.6149 4.84304C18.9643 3.83736 19.465 3.06818 20.117 2.53551C20.7733 1.99858 21.5574 1.73011 22.4693 1.73011C23.3812 1.73011 24.1632 1.99858 24.8152 2.53551C25.4714 3.06818 25.9721 3.83736 26.3173 4.84304C26.6667 5.84446 26.8414 7.0483 26.8414 8.45455C26.8414 9.86506 26.6667 11.0732 26.3173 12.0788C25.9721 13.0845 25.4736 13.8537 24.8216 14.3864C24.1738 14.9148 23.3897 15.179 22.4693 15.179ZM22.4693 14.1051C23.4792 14.1051 24.2676 13.6129 24.8343 12.6286C25.4011 11.6399 25.6845 10.2486 25.6845 8.45455C25.6845 7.26136 25.5545 6.2429 25.2946 5.39915C25.0389 4.55114 24.6703 3.90341 24.1887 3.45597C23.7115 3.00852 23.1383 2.7848 22.4693 2.7848C21.4679 2.7848 20.6816 3.28338 20.1106 4.28054C19.5396 5.27344 19.2541 6.66477 19.2541 8.45455C19.2541 9.64773 19.3819 10.6662 19.6376 11.5099C19.8976 12.3537 20.2662 12.9972 20.7434 13.4403C21.225 13.8835 21.8003 14.1051 22.4693 14.1051ZM33.8684 15.179C32.9479 15.179 32.1617 14.9148 31.5097 14.3864C30.862 13.8537 30.3634 13.0845 30.0139 12.0788C29.6688 11.0732 29.4962 9.86506 29.4962 8.45455C29.4962 7.0483 29.6688 5.84446 30.0139 4.84304C30.3634 3.83736 30.8641 3.06818 31.5161 2.53551C32.1723 1.99858 32.9564 1.73011 33.8684 1.73011C34.7803 1.73011 35.5622 1.99858 36.2142 2.53551C36.8705 3.06818 37.3712 3.83736 37.7164 4.84304C38.0658 5.84446 38.2405 7.0483 38.2405 8.45455C38.2405 9.86506 38.0658 11.0732 37.7164 12.0788C37.3712 13.0845 36.8726 13.8537 36.2206 14.3864C35.5729 14.9148 34.7888 15.179 33.8684 15.179ZM33.8684 14.1051C34.8783 14.1051 35.6666 13.6129 36.2334 12.6286C36.8002 11.6399 37.0836 10.2486 37.0836 8.45455C37.0836 7.26136 36.9536 6.2429 36.6936 5.39915C36.438 4.55114 36.0693 3.90341 35.5878 3.45597C35.1105 3.00852 34.5374 2.7848 33.8684 2.7848C32.8669 2.7848 32.0807 3.28338 31.5097 4.28054C30.9387 5.27344 30.6532 6.66477 30.6532 8.45455C30.6532 9.64773 30.781 10.6662 31.0367 11.5099C31.2966 12.3537 31.6652 12.9972 32.1425 13.4403C32.624 13.8835 33.1993 14.1051 33.8684 14.1051ZM46.9058 15V1.90909H51.131C52.0599 1.90909 52.8355 2.07741 53.4577 2.41406C54.0841 2.74645 54.555 3.20881 54.8703 3.80114C55.1899 4.3892 55.3497 5.06463 55.3497 5.82741C55.3497 6.5902 55.1899 7.26349 54.8703 7.8473C54.555 8.43111 54.0862 8.88707 53.4641 9.2152C52.8419 9.54332 52.0706 9.70739 51.1501 9.70739H47.5514V8.61435H51.1182C51.8 8.61435 52.3668 8.50142 52.8185 8.27557C53.2744 8.04972 53.6132 7.72798 53.8348 7.31037C54.0607 6.89276 54.1736 6.39844 54.1736 5.82741C54.1736 5.25639 54.0607 4.75781 53.8348 4.33168C53.6089 3.90128 53.268 3.56889 52.8121 3.33452C52.3604 3.10014 51.7893 2.98295 51.099 2.98295H48.1011V15H46.9058ZM52.6778 9.09375L55.8994 15H54.5187L51.3291 9.09375H52.6778ZM62.2488 15.2045C61.3326 15.2045 60.54 14.9915 59.8709 14.5653C59.2019 14.1349 58.6841 13.5405 58.3177 12.782C57.9555 12.0192 57.7743 11.1413 57.7743 10.1484C57.7743 9.1598 57.9555 8.28196 58.3177 7.51491C58.6841 6.74361 59.1891 6.14062 59.8326 5.70597C60.4803 5.26705 61.2282 5.04759 62.0762 5.04759C62.6089 5.04759 63.1224 5.1456 63.6167 5.34162C64.111 5.53338 64.5542 5.82954 64.9462 6.23011C65.3425 6.62642 65.6557 7.12713 65.8859 7.73224C66.116 8.3331 66.231 9.04474 66.231 9.86719V10.4297H58.5606V9.42614H65.0677C65.0677 8.79545 64.9398 8.22869 64.6841 7.72585C64.4327 7.21875 64.0812 6.81818 63.6295 6.52415C63.182 6.23011 62.6643 6.0831 62.0762 6.0831C61.454 6.0831 60.9064 6.24929 60.4334 6.58168C59.9604 6.91406 59.5897 7.35298 59.3212 7.89844C59.057 8.44389 58.9228 9.04048 58.9185 9.68821V10.2891C58.9185 11.0689 59.0528 11.7507 59.3212 12.3345C59.5939 12.9141 59.9796 13.3636 60.4782 13.6832C60.9768 14.0028 61.567 14.1626 62.2488 14.1626C62.7133 14.1626 63.1202 14.0902 63.4697 13.9453C63.8234 13.8004 64.1195 13.6065 64.3582 13.3636C64.6011 13.1165 64.7843 12.8459 64.9079 12.5518L65.9881 12.9034C65.839 13.3168 65.5939 13.6982 65.253 14.0476C64.9164 14.397 64.4945 14.6783 63.9874 14.8913C63.4846 15.1001 62.905 15.2045 62.2488 15.2045ZM76.3996 5.18182L72.8137 15H71.5992L68.0132 5.18182H69.2469L72.1617 13.4979H72.2512L75.1659 5.18182H76.3996ZM78.9984 15V5.18182H80.1426V15H78.9984ZM79.5801 3.49432C79.3457 3.49432 79.1454 3.41548 78.9793 3.25781C78.8131 3.09588 78.73 2.90199 78.73 2.67614C78.73 2.45028 78.8131 2.25852 78.9793 2.10085C79.1454 1.93892 79.3457 1.85795 79.5801 1.85795C79.8145 1.85795 80.0148 1.93892 80.181 2.10085C80.3471 2.25852 80.4302 2.45028 80.4302 2.67614C80.4302 2.90199 80.3471 3.09588 80.181 3.25781C80.0148 3.41548 79.8145 3.49432 79.5801 3.49432ZM87.4811 15.2045C86.5649 15.2045 85.7723 14.9915 85.1033 14.5653C84.4342 14.1349 83.9165 13.5405 83.55 12.782C83.1878 12.0192 83.0067 11.1413 83.0067 10.1484C83.0067 9.1598 83.1878 8.28196 83.55 7.51491C83.9165 6.74361 84.4215 6.14062 85.0649 5.70597C85.7127 5.26705 86.4605 5.04759 87.3085 5.04759C87.8412 5.04759 88.3547 5.1456 88.849 5.34162C89.3433 5.53338 89.7865 5.82954 90.1786 6.23011C90.5749 6.62642 90.8881 7.12713 91.1182 7.73224C91.3483 8.3331 91.4634 9.04474 91.4634 9.86719V10.4297H83.7929V9.42614H90.3C90.3 8.79545 90.1722 8.22869 89.9165 7.72585C89.6651 7.21875 89.3135 6.81818 88.8618 6.52415C88.4144 6.23011 87.8966 6.0831 87.3085 6.0831C86.6864 6.0831 86.1388 6.24929 85.6658 6.58168C85.1928 6.91406 84.822 7.35298 84.5536 7.89844C84.2894 8.44389 84.1551 9.04048 84.1509 9.68821V10.2891C84.1509 11.0689 84.2851 11.7507 84.5536 12.3345C84.8263 12.9141 85.2119 13.3636 85.7105 13.6832C86.2091 14.0028 86.7993 14.1626 87.4811 14.1626C87.9456 14.1626 88.3526 14.0902 88.702 13.9453C89.0557 13.8004 89.3519 13.6065 89.5905 13.3636C89.8334 13.1165 90.0166 12.8459 90.1402 12.5518L91.2205 12.9034C91.0713 13.3168 90.8263 13.6982 90.4854 14.0476C90.1487 14.397 89.7269 14.6783 89.2198 14.8913C88.7169 15.1001 88.1374 15.2045 87.4811 15.2045ZM96.5103 15L93.5444 5.18182H94.7461L97.0728 13.2805H97.1559L99.4762 5.18182H100.684L102.985 13.2614H103.075L105.402 5.18182H106.603L103.637 15H102.461L100.135 6.95241H100.013L97.6865 15H96.5103ZM111.936 9.47727C111.936 11.0114 111.742 12.4602 111.355 13.8239C110.967 15.1875 110.411 16.4659 109.686 17.6591H108.651C108.962 17.1563 109.245 16.5874 109.501 15.9524C109.761 15.3175 109.985 14.6399 110.172 13.9197C110.36 13.1996 110.505 12.4624 110.607 11.7081C110.709 10.9538 110.76 10.2102 110.76 9.47727C110.76 8.4929 110.671 7.5 110.492 6.49858C110.313 5.49716 110.064 4.54687 109.744 3.64773C109.429 2.74858 109.064 1.96449 108.651 1.29545H109.686C110.411 2.4929 110.967 3.77344 111.355 5.13707C111.742 6.50071 111.936 7.94744 111.936 9.47727Z" fill="black"/>
</svg>
